<?xml version="1.0" encoding="UTF-8" standalone="no"?>
<!-- Uploaded to: SVG Repo, www.svgrepo.com, Generator: SVG Repo Mixer Tools -->

<svg
   fill="#000000"
   width="800px"
   height="800px"
   viewBox="0 0 512 512"
   version="1.1"
   id="svg1"
   sodipodi:docname="javascriptLogo.svg"
   inkscape:version="1.3.2 (091e20e, 2023-11-25, custom)"
   xmlns:inkscape="http://www.inkscape.org/namespaces/inkscape"
   xmlns:sodipodi="http://sodipodi.sourceforge.net/DTD/sodipodi-0.dtd"
   xmlns="http://www.w3.org/2000/svg"
   xmlns:svg="http://www.w3.org/2000/svg">
  <defs
     id="defs1" />
  <sodipodi:namedview
     id="namedview1"
     pagecolor="#ffffff"
     bordercolor="#000000"
     borderopacity="0.25"
     inkscape:showpageshadow="2"
     inkscape:pageopacity="0.0"
     inkscape:pagecheckerboard="0"
     inkscape:deskcolor="#d1d1d1"
     inkscape:zoom="1.02625"
     inkscape:cx="400.48721"
     inkscape:cy="400"
     inkscape:window-width="1920"
     inkscape:window-height="1017"
     inkscape:window-x="3832"
     inkscape:window-y="-8"
     inkscape:window-maximized="1"
     inkscape:current-layer="svg1" />
  <title
     id="title1">ionicons-v5_logos</title>
  <path
     d="M32,32V480H480V32ZM272,380c0,43.61-25.76,64.87-63.05,64.87-33.68,0-53.23-17.44-63.15-38.49h0l34.28-20.75c6.61,11.73,11.63,21.65,26.06,21.65,12,0,21.86-5.41,21.86-26.46V240h44Zm99.35,63.87c-39.09,0-64.35-17.64-76.68-42h0L329,382c9,14.74,20.75,24.56,41.5,24.56,17.44,0,27.57-7.72,27.57-19.75,0-14.43-10.43-19.54-29.68-28l-10.52-4.52c-30.38-12.92-50.52-29.16-50.52-63.45,0-31.57,24.05-54.63,61.64-54.63,26.77,0,46,8.32,59.85,32.68L396,290c-7.22-12.93-15-18-27.06-18-12.33,0-20.15,7.82-20.15,18,0,12.63,7.82,17.74,25.86,25.56l10.52,4.51c35.79,15.34,55.94,31,55.94,66.16C441.12,424.13,411.35,443.87,371.35,443.87Z"
     id="path1" />
  <path
     id="path2"
     style="fill:#f7e025;stroke:#1c00ff;stroke-width:2.10659;fill-opacity:1"
     d="M 580.11719 369.92969 C 577.51976 369.9119 574.86514 369.95252 572.15234 370.05078 C 556.4045 370.62119 548.11888 372.10906 535.95898 376.54688 C 508.61014 386.52797 490.52934 406.09371 483.22266 433.61719 C 480.51847 443.80355 480.30179 464.86064 482.78125 476.49219 C 486.33184 493.14864 493.17024 506.16681 504.71875 518.25977 C 518.58676 532.78156 532.82751 541.32687 571.26367 558.18945 C 605.07454 573.02286 614.11926 578.96051 619.42578 589.80664 C 621.69119 594.43697 622.08117 596.46468 622.07617 603.58594 C 622.06951 613.41877 620.70661 617.17353 614.83008 623.54883 C 609.81254 628.9922 602.21565 632.69528 592.51562 634.42578 C 573.63663 637.79383 553.3807 634.23781 539.33984 625.08984 C 532.49122 620.62779 522.32109 610.44468 517.44336 603.16602 C 515.64761 600.48636 514.08741 598.16865 513.97656 598.01562 C 513.8131 597.78995 463.39609 626.56811 461.93555 627.7207 C 461.05298 628.41719 465.7244 636.56658 471.31836 644.0918 C 479.04817 654.49026 491.8176 666.22244 502.85352 673.06445 C 518.67556 682.87373 540.80509 690.07255 561.91992 692.2793 C 573.13571 693.45149 596.62347 692.74289 607.09961 690.91602 C 634.2657 686.17864 655.93659 675.05215 669.58984 658.83008 C 684.16713 641.51013 690.76839 617.95085 688.12695 592.67383 C 685.43336 566.89758 676.41173 548.9529 658.22852 533.20898 C 644.50931 521.33023 627.96887 512.18478 591.05859 496.06836 C 558.88348 482.01948 549.42147 475.17539 546.02734 463.5 C 543.97284 456.43274 544.6152 445.80466 547.42969 440.31445 C 553.49029 428.49205 568.73096 422.40614 585.12891 425.26172 C 597.27226 427.3764 607.39196 434.56573 615.74609 447.01562 C 617.45429 449.5613 619.10792 451.64453 619.42188 451.64453 C 619.8713 451.64453 660.42585 425.86804 667.70898 420.95312 C 669.25452 419.91014 669.01266 419.22838 664.9082 413.07227 C 645.26854 383.61553 619.07858 370.19657 580.11719 369.92969 z M 356.63867 375.63867 L 356.62109 489.89062 C 356.603 612.07978 356.61827 611.68395 351.79883 621.13086 C 346.26959 631.96906 335.21877 637.39033 320.26367 636.60156 C 305.38084 635.81658 296.55768 629.5294 286.56445 612.59375 C 283.66309 607.67676 281.1489 603.6543 280.97852 603.6543 C 280.48479 603.6543 230.53679 633.97007 229.64258 634.8125 C 227.57904 636.75651 240.41654 656.11114 250.09375 665.64648 C 264.28483 679.62952 282.4161 688.72219 304.45703 692.9082 C 309.14303 693.79814 317.05958 694.10761 329.35547 693.88086 C 345.02459 693.59191 348.6552 693.21395 357.125 690.98828 C 396.79032 680.56511 419.63258 651.95421 423.79883 607.47656 C 424.4675 600.33814 424.8437 556.76322 424.8457 485.99219 L 424.84766 375.63867 L 390.74219 375.63867 L 356.63867 375.63867 z "
     transform="scale(0.64)" />
  <path
     style="fill:#222222;fill-opacity:1;stroke:#1c00ff;stroke-width:2.10659"
     d="M 50.669915,400 V 50.182704 H 400 749.33009 V 400 749.8173 H 400 50.669915 Z M 359.0743,692.00604 c 30.8812,-8.89384 51.10402,-28.13875 60.81469,-57.87392 5.92759,-18.15093 5.94517,-18.56217 6.19403,-144.97256 l 0.22636,-114.98173 H 390.743 355.17661 l -0.51795,118.39221 c -0.35613,81.4048 -0.84828,119.31414 -1.57531,121.34321 -3.30876,9.2345 -7.36603,14.15327 -14.95911,18.13545 -3.83539,2.01147 -5.72814,2.29966 -15.10353,2.29966 -9.76731,0 -11.21182,-0.24219 -16.27538,-2.72874 -6.40864,-3.14706 -12.74879,-9.74232 -18.38057,-19.12013 -2.11699,-3.52515 -4.62044,-7.40335 -5.56321,-8.61823 l -1.71413,-2.20888 -20.39231,12.27217 c -11.21575,6.74969 -23.36167,14.19304 -26.99092,16.54079 l -6.59864,4.26864 1.52305,3.64516 c 4.22489,10.11158 17.04256,26.20981 27.58436,34.64429 8.57477,6.86067 21.99147,14.05767 32.26372,17.30694 13.9979,4.42776 17.90556,4.86456 40.39056,4.51482 19.59285,-0.30475 22.1918,-0.55074 30.20706,-2.85915 z m 240.87397,1.22419 c 30.48864,-3.39969 57.3304,-16.37406 71.97948,-34.79239 5.3868,-6.77285 13.29835,-22.7632 15.53461,-31.39765 2.50116,-9.6572 3.02747,-30.7321 1.0563,-42.29625 -3.35656,-19.69155 -10.66879,-34.19473 -23.89833,-47.40029 -13.64002,-13.61529 -32.47076,-24.82003 -68.50669,-40.76314 -42.33673,-18.73073 -49.46321,-24.996 -49.46321,-43.48578 0,-5.84006 0.47378,-7.98637 2.71546,-12.30137 5.0989,-9.81486 16.67225,-15.14944 30.85164,-14.22067 13.43578,0.88007 22.88329,6.4315 32.33107,18.99803 3.11584,4.14439 5.76446,7.69489 5.88584,7.89001 0.64408,1.03544 51.96751,-32.06272 51.96751,-33.51352 0,-2.53486 -10.36449,-16.71299 -17.51918,-23.9654 -12.57997,-12.7518 -26.86113,-20.58649 -45.331,-24.86873 -6.47767,-1.50184 -11.66616,-1.79543 -30.69428,-1.7368 -25.4979,0.0786 -30.39925,0.89291 -46.01897,7.64598 -12.44058,5.37857 -18.23082,9.28722 -27.54335,18.59284 -17.68404,17.67095 -25.05966,38.44003 -23.53082,66.26066 1.32554,24.12135 8.53024,41.13938 24.48772,57.8419 13.40547,14.03134 30.01375,23.82088 73.01011,43.03489 26.13052,11.67707 35.7641,18.17362 40.7243,27.46303 1.88624,3.53252 2.22798,5.61818 2.20196,13.4385 -0.0344,10.34297 -0.90308,12.75741 -6.75393,18.77209 -8.12161,8.34905 -20.21408,11.8601 -38.52586,11.186 -13.78097,-0.5073 -23.47973,-3.14402 -33.12098,-9.00433 -5.92367,-3.60061 -19.60839,-17.15549 -23.85981,-23.63342 -1.49484,-2.27771 -3.27736,-4.14129 -3.96115,-4.14129 -2.02286,0 -54.03979,29.61849 -54.03979,30.7703 0,0.26885 0.9387,2.33494 2.08599,4.5913 6.14702,12.08917 19.20562,26.97276 32.36633,36.88965 14.04897,10.58622 35.95392,19.4957 57.0919,23.2212 11.94395,2.10508 34.10082,2.5277 48.47713,0.92465 z"
     id="path3"
     transform="scale(0.64)" />
</svg>
