<?xml version="1.0" encoding="UTF-8" standalone="no"?>
<svg
   viewBox="0 0 88 74"
   version="1.1"
   id="svg1"
   sodipodi:docname="eye.svg"
   width="88"
   height="74"
   inkscape:version="1.3.2 (091e20e, 2023-11-25, custom)"
   xmlns:inkscape="http://www.inkscape.org/namespaces/inkscape"
   xmlns:sodipodi="http://sodipodi.sourceforge.net/DTD/sodipodi-0.dtd"
   xmlns="http://www.w3.org/2000/svg"
   xmlns:svg="http://www.w3.org/2000/svg">
  <defs
     id="defs1">
    <filter
       style="color-interpolation-filters:sRGB"
       inkscape:label="Drop Shadow"
       id="filter9"
       x="-0.18906832"
       y="-0.24310897"
       width="1.3938923"
       height="1.506477">
      <feFlood
         result="flood"
         in="SourceGraphic"
         flood-opacity="1.000000"
         flood-color="rgb(240,255,255)"
         id="feFlood8" />
      <feGaussianBlur
         result="blur"
         in="SourceGraphic"
         stdDeviation="5.000000"
         id="feGaussianBlur8" />
      <feOffset
         result="offset"
         in="blur"
         dx="1.000000"
         dy="1.000000"
         id="feOffset8" />
      <feComposite
         result="comp1"
         operator="in"
         in="flood"
         in2="offset"
         id="feComposite8" />
      <feComposite
         result="comp2"
         operator="over"
         in="SourceGraphic"
         in2="comp1"
         id="feComposite9" />
    </filter>
  </defs>
  <sodipodi:namedview
     id="namedview1"
     pagecolor="#ffffff"
     bordercolor="#000000"
     borderopacity="0.25"
     inkscape:showpageshadow="2"
     inkscape:pageopacity="0.0"
     inkscape:pagecheckerboard="0"
     inkscape:deskcolor="#d1d1d1"
     inkscape:zoom="6.4140625"
     inkscape:cx="41.159562"
     inkscape:cy="26.582217"
     inkscape:window-width="1920"
     inkscape:window-height="1017"
     inkscape:window-x="1912"
     inkscape:window-y="-8"
     inkscape:window-maximized="1"
     inkscape:current-layer="svg1" />
  <!--!Font Awesome Free 6.5.2 by @fontawesome - https://fontawesome.com License - https://fontawesome.com/license/free Copyright 2024 Fonticons, Inc.-->
  <path
     d="m 43.494491,17.108341 c -7.18373,0 -13.08937,3.26133 -17.61776,7.45918 -4.24193,3.94444 -7.17271,8.62708 -8.67116,11.93248 1.49845,3.3054 4.42923,7.98804 8.66014,11.93248 4.53941,4.19785 10.44505,7.45918 17.62878,7.45918 7.18373,0 13.08937,-3.26133 17.61776,-7.45918 4.24193,-3.94444 7.17271,-8.62708 8.67116,-11.93248 -1.49845,-3.3054 -4.42923,-7.98804 -8.66014,-11.93248 -4.53941,-4.19785 -10.44505,-7.45918 -17.62878,-7.45918 z m -21.22064,3.59187 c 5.18947,-4.82588 12.31811,-8.8805 21.22064,-8.8805 8.90254,0 16.03117,4.05462 21.22065,8.8805 5.15641,4.79282 8.60504,10.51116 10.24672,14.44458 0.3636,0.87042 0.3636,1.84 0,2.71042 -1.64168,3.93342 -5.09031,9.66278 -10.24672,14.44458 -5.18948,4.82588 -12.31811,8.8805 -21.22065,8.8805 -8.90253,0 -16.03117,-4.05462 -21.22064,-8.8805 -5.15642,-4.7818 -8.60505,-10.51116 -10.23571,-14.44458 -0.3636,-0.87042 -0.3636,-1.84 0,-2.71042 1.63066,-3.93342 5.07929,-9.66278 10.23571,-14.44458 z m 21.22064,24.61418 c 4.86995,0 8.81439,-3.94444 8.81439,-8.81439 0,-4.86995 -3.94444,-8.81439 -8.81439,-8.81439 -0.0771,0 -0.14323,0 -0.22036,0 0.14324,0.56192 0.22036,1.15689 0.22036,1.76288 0,3.88935 -3.16216,7.05151 -7.05151,7.05151 -0.60599,0 -1.20096,-0.0771 -1.76288,-0.22036 0,0.0771 0,0.14323 0,0.22036 0,4.86995 3.94444,8.81439 8.81439,8.81439 z m 0,-22.91741 a 14.103024,14.103024 0 1 1 0,28.20604 14.103024,14.103024 0 1 1 0,-28.20604 z"
     id="path1"
     style="fill:#e9ffff;fill-opacity:1;stroke-width:0.11018;filter:url(#filter9)" />
</svg>
