<?xml version="1.0" encoding="UTF-8" standalone="no"?>
<!-- Uploaded to: SVG Repo, www.svgrepo.com, Generator: SVG Repo Mixer Tools -->

<svg
   width="1216.6519"
   height="1216.6519"
   viewBox="0 0 36.499555 36.499555"
   fill="none"
   version="1.1"
   id="svg6"
   sodipodi:docname="githubLogo.svg"
   inkscape:version="1.1.2 (0a00cf5339, 2022-02-04)"
   xmlns:inkscape="http://www.inkscape.org/namespaces/inkscape"
   xmlns:sodipodi="http://sodipodi.sourceforge.net/DTD/sodipodi-0.dtd"
   xmlns="http://www.w3.org/2000/svg"
   xmlns:svg="http://www.w3.org/2000/svg">
  <defs
     id="defs10" />
  <sodipodi:namedview
     id="namedview8"
     pagecolor="#505050"
     bordercolor="#eeeeee"
     borderopacity="1"
     inkscape:pageshadow="0"
     inkscape:pageopacity="0"
     inkscape:pagecheckerboard="0"
     showgrid="false"
     fit-margin-top="0"
     fit-margin-left="0"
     fit-margin-right="0"
     fit-margin-bottom="0"
     inkscape:zoom="0.39880856"
     inkscape:cx="545.37446"
     inkscape:cy="655.70308"
     inkscape:window-width="1440"
     inkscape:window-height="868"
     inkscape:window-x="1366"
     inkscape:window-y="0"
     inkscape:window-maximized="1"
     inkscape:current-layer="svg6" />
  <path
     d="m 22.249777,28.276577 v -2.87 c 0.0375,-0.4768 -0.0269,-0.9562 -0.189,-1.4062 -0.1621,-0.45 -0.4181,-0.8604 -0.751,-1.2038 3.14,-0.35 6.44,-1.54 6.44,-7.00001 -3e-4,-1.39617 -0.5373,-2.7388 -1.5,-3.750001 0.4558,-1.22149 0.4236,-2.5716504 -0.09,-3.7700004 0,0 -1.18,-0.35 -3.91,1.48 -2.292,-0.62118 -4.708,-0.62118 -7.00001,0 -2.730001,-1.83 -3.910001,-1.48 -3.910001,-1.48 -0.51363,1.19835 -0.54586,2.5485104 -0.09,3.7700004 -0.96988,1.018701 -1.5074804,2.373471 -1.5000004,3.780001 0,5.42001 3.2999914,6.61001 6.4399914,7.00001 -0.329,0.34 -0.58273,0.7454 -0.74469,1.1899 -0.16195,0.4445 -0.2285,0.9182 -0.1953,1.3901 v 2.87"
     stroke="#000000"
     stroke-width="1.5"
     stroke-linecap="round"
     stroke-linejoin="round"
     id="path2"
     style="stroke-width:2.31;stroke-miterlimit:4;stroke-dasharray:none" />
  <path
     d="m 15.249777,26.276477 c -3.000001,0.9732 -5.5000014,0 -7.0000014,-3"
     stroke="#000000"
     stroke-width="1.5"
     stroke-linecap="round"
     stroke-linejoin="round"
     id="path4"
     style="stroke-width:2.31;stroke-miterlimit:4;stroke-dasharray:none" />
  <circle
     style="fill:none;stroke:#0f1516;stroke-width:2.55;stroke-linejoin:round;stroke-miterlimit:4;stroke-dasharray:none"
     id="path849"
     cx="18.249777"
     cy="18.249777"
     r="16.974777" />
</svg>
