<?xml version="1.0" encoding="UTF-8" standalone="no"?>
<!-- Uploaded to: SVG Repo, www.svgrepo.com, Generator: SVG Repo Mixer Tools -->

<svg
   width="800px"
   height="800px"
   viewBox="-8.78 0 70 70"
   version="1.1"
   id="svg1"
   sodipodi:docname="sqlLogo.svg"
   inkscape:version="1.3.2 (091e20e, 2023-11-25, custom)"
   xmlns:inkscape="http://www.inkscape.org/namespaces/inkscape"
   xmlns:sodipodi="http://sodipodi.sourceforge.net/DTD/sodipodi-0.dtd"
   xmlns="http://www.w3.org/2000/svg"
   xmlns:svg="http://www.w3.org/2000/svg"
   xmlns:rdf="http://www.w3.org/1999/02/22-rdf-syntax-ns#"
   xmlns:cc="http://creativecommons.org/ns#"
   xmlns:dc="http://purl.org/dc/elements/1.1/">
  <defs
     id="defs1" />
  <sodipodi:namedview
     id="namedview1"
     pagecolor="#ffffff"
     bordercolor="#000000"
     borderopacity="0.25"
     inkscape:showpageshadow="2"
     inkscape:pageopacity="0.0"
     inkscape:pagecheckerboard="0"
     inkscape:deskcolor="#d1d1d1"
     inkscape:zoom="0.513125"
     inkscape:cx="253.34957"
     inkscape:cy="564.19001"
     inkscape:window-width="1920"
     inkscape:window-height="1017"
     inkscape:window-x="3832"
     inkscape:window-y="-8"
     inkscape:window-maximized="1"
     inkscape:current-layer="svg1" />
  <metadata
     id="metadata1">
    <rdf:RDF>
      <cc:Work>
        <dc:subject>
                    Data
                </dc:subject>
        <dc:identifier>
                    sql-database-generic
                </dc:identifier>
        <dc:title>
                    SQL Database (Generic)
                </dc:title>
        <dc:format>
                    image/svg+xml
                </dc:format>
        <dc:publisher>
                    Amido Limited
                </dc:publisher>
        <dc:creator>
                    Richard Slater
                </dc:creator>
        <dc:type
           rdf:resource="http://purl.org/dc/dcmitype/StillImage" />
      </cc:Work>
    </rdf:RDF>
  </metadata>
  <path
     d="M 22.7741,63.994619 C 17.33905,63.602857 11.967198,62.2348 8.6727057,60.403314 6.7961629,59.360164 5.3665009,58.078124 4.8054923,56.935519 L 4.4717107,56.25568 V 34.931422 13.60714 l 0.2641304,-0.536257 c 1.1803211,-2.39636 4.9472673,-4.5567329 10.2057049,-5.8529569 1.784993,-0.4400376 4.361889,-0.8782504 6.464149,-1.0992232 2.146662,-0.2257007 7.83661,-0.1913603 9.977938,0.060552 5.691234,0.6686415 10.534087,2.165599 13.518554,4.1786571 1.150949,0.776308 2.331967,2.01845 2.732057,2.873475 l 0.343055,0.733092 -0.02936,21.259749 -0.02936,21.25989 -0.275345,0.559399 c -0.151437,0.307653 -0.608886,0.913006 -1.016549,1.34508 -2.481638,2.630687 -7.804708,4.576724 -14.786841,5.405869 -1.423109,0.169047 -7.605609,0.305745 -9.065663,0.200485 z M 32.790045,45.722572 c -0.0209,-0.0545 -0.833392,-0.778307 -1.805531,-1.608539 -0.972139,-0.830232 -1.809405,-1.548526 -1.860592,-1.596212 -0.05118,-0.04769 0.128411,-0.216544 0.399119,-0.375231 0.2707,-0.158687 0.789356,-0.600127 1.152559,-0.980981 1.062145,-1.113756 1.563282,-2.489518 1.563282,-4.291616 0,-1.774085 -0.540504,-3.205514 -1.623046,-4.298184 -1.091036,-1.10138 -2.343721,-1.574597 -4.168007,-1.574597 -2.811985,0 -4.97162,1.640789 -5.660916,4.300922 -0.237114,0.914996 -0.235837,2.763909 0.0025,3.575238 0.621619,2.116294 2.314607,3.653299 4.421628,4.014221 0.713019,0.122132 0.809611,0.174779 1.295726,0.70625 0.288899,0.315849 0.881743,0.946309 1.317434,1.40102 l 0.792159,0.82674 h 2.10586 c 1.158224,0 2.088756,-0.04454 2.067854,-0.09903 z M 25.568177,39.82625 c -0.506968,-0.264338 -0.698627,-0.469476 -0.987733,-1.057194 -0.223287,-0.453923 -0.261468,-0.712114 -0.263973,-1.78501 -0.0025,-1.090181 0.03218,-1.325753 0.265325,-1.799136 0.381435,-0.774648 0.907075,-1.14136 1.720203,-1.20017 1.131855,-0.08212 1.785176,0.473383 2.127592,1.808343 0.419815,1.636733 -0.04181,3.37686 -1.049048,3.954358 -0.528435,0.302984 -1.316687,0.337258 -1.812366,0.0788 z m -9.334231,3.038118 c 2.207894,-0.41872 3.461242,-1.702751 3.461242,-3.545974 0,-1.635206 -0.809138,-2.588002 -3.045508,-3.58636 -1.280199,-0.57151 -1.743901,-0.930259 -1.743901,-1.349394 0,-0.347385 0.440054,-0.728032 0.952347,-0.823671 0.500192,-0.0934 1.826816,0.13703 2.610224,0.453475 l 0.656672,0.265267 v -1.453576 -1.453658 l -0.712711,-0.158099 c -0.440478,-0.09771 -1.366058,-0.156356 -2.42321,-0.15337 -1.497439,0 -1.790684,0.0365 -2.354206,0.26029 -1.646056,0.653462 -2.427158,1.76662 -2.414666,3.441086 0.0117,1.567546 0.838668,2.545367 2.896758,3.425011 1.214347,0.51902 1.701059,0.914233 1.701059,1.381262 0,0.992469 -1.653662,1.11461 -3.404481,0.251456 -0.479479,-0.236385 -0.91026,-0.449054 -0.9573,-0.472603 -0.04703,-0.02356 -0.08553,0.655478 -0.08553,1.50896 0,1.54481 0.0017,1.552259 0.28135,1.658739 1.053262,0.400455 3.381165,0.578867 4.581858,0.351159 z M 41.4756,41.431313 V 40.119926 H 39.480011 37.48443 v -4.504351 -4.50431 H 35.716905 33.949389 V 36.926978 42.7427 H 37.712494 41.4756 Z M 29.159979,18.450623 c 3.512396,-0.243617 6.145265,-0.703562 8.462144,-1.478211 2.308136,-0.771746 3.671622,-1.705571 3.976621,-2.723506 0.117504,-0.392259 0.109043,-0.541067 -0.05516,-0.971151 C 40.807216,11.349635 36.693681,9.8682716 30.407911,9.2676472 27.719127,9.0106751 22.829219,9.0939546 20.26552,9.4402614 c -3.911847,0.5285428 -7.086497,1.5103116 -8.498076,2.6280326 -2.8554839,2.261155 0.164178,4.748093 7.186565,5.918651 3.044878,0.507557 6.989788,0.686807 10.206003,0.463678 z"
     fill="#00bcf2"
     id="path1"
     style="stroke-width:0.829477" />
</svg>
