<?xml version="1.0" encoding="UTF-8" standalone="no"?>
<!-- Created with Inkscape (http://www.inkscape.org/) -->

<svg
   width="147.11902"
   height="29.037781"
   viewBox="0 0 38.925239 7.6829128"
   version="1.1"
   id="svg1"
   xml:space="preserve"
   inkscape:version="1.3.2 (091e20e, 2023-11-25, custom)"
   sodipodi:docname="background.svg"
   inkscape:export-filename="prompt.png"
   inkscape:export-xdpi="96"
   inkscape:export-ydpi="96"
   xmlns:inkscape="http://www.inkscape.org/namespaces/inkscape"
   xmlns:sodipodi="http://sodipodi.sourceforge.net/DTD/sodipodi-0.dtd"
   xmlns="http://www.w3.org/2000/svg"
   xmlns:svg="http://www.w3.org/2000/svg"><sodipodi:namedview
     id="namedview1"
     pagecolor="#ffffff"
     bordercolor="#000000"
     borderopacity="0.25"
     inkscape:showpageshadow="2"
     inkscape:pageopacity="0.0"
     inkscape:pagecheckerboard="0"
     inkscape:deskcolor="#d1d1d1"
     inkscape:document-units="mm"
     showgrid="true"
     inkscape:zoom="5.6568542"
     inkscape:cx="1308.6779"
     inkscape:cy="253.58617"
     inkscape:window-width="1920"
     inkscape:window-height="1017"
     inkscape:window-x="1912"
     inkscape:window-y="-8"
     inkscape:window-maximized="1"
     inkscape:current-layer="layer1"><inkscape:grid
       id="grid1"
       units="px"
       originx="-323.6127"
       originy="-71.720917"
       spacingx="0.26458333"
       spacingy="0.26458334"
       empcolor="#0099e5"
       empopacity="0.30196078"
       color="#0099e5"
       opacity="0.14901961"
       empspacing="5"
       dotted="false"
       gridanglex="30"
       gridanglez="30"
       visible="true" /></sodipodi:namedview><defs
     id="defs1" /><g
     inkscape:label="Camada 1"
     inkscape:groupmode="layer"
     id="layer1"
     transform="translate(-323.61271,-71.720917)"><g
       id="g23"><path
         id="path14"
         style="fill:#3e3e3e;fill-opacity:1;stroke:none;stroke-width:0.191683;stroke-dasharray:none;stroke-opacity:1"
         d="m 341.55383,73.255477 c -0.0631,0.0019 -0.12512,0.0057 -0.18552,0.01189 -1.06536,0.07459 -2.24723,0.927563 -2.53731,2.009697 l -12.61112,1.040247 c -0.0701,-0.08281 -0.60935,-0.489898 -1.17615,-0.379822 -0.68201,0.09424 -1.52709,0.843833 -1.42214,1.885673 0.0296,0.972118 1.11029,1.625312 1.70171,1.506885 0.43472,-0.02322 0.88215,-0.201811 1.20147,-0.626836 l 12.51603,-1.032495 c 0.38895,0.782128 1.48157,1.843457 2.959,1.632459 1.53582,-0.120351 2.40366,-1.400797 2.37246,-1.856218 l -2.4815,0.204639 -0.91364,-1.318266 0.70022,-1.48208 2.43241,-0.200504 c -0.39449,-0.970092 -1.60932,-1.423678 -2.55592,-1.395264 z m -15.9365,3.378088 0.68007,0.889868 -0.43202,1.032496 -1.11156,0.142627 -0.68006,-0.889352 0.43201,-1.032495 z" /><path
         style="fill:#434343;fill-opacity:1;stroke:none;stroke-width:0.437604;stroke-dasharray:none;stroke-opacity:1"
         d="m 344.34135,73.573794 -0.81842,0.228174 -2.51946,-1.065454 0.26116,-1.015602 2.75611,0.319726 0.5465,0.535575 7.68034,1.974908 c 0.13229,-0.456594 0.46392,-1.113089 1.11456,-1.35634 0.65724,0.219804 0.59791,0.818054 1.37522,1.0328 0.73548,0.203988 0.83545,-0.484104 1.66178,-0.286494 l 5.09779,1.310838 c 0.48448,0.139447 1.14065,1.073216 1.02831,1.683597 l -0.37779,1.469166 c -0.21434,0.717953 -1.19862,1.110962 -1.74246,0.97112 l -5.02878,-1.293089 c -0.7283,-0.231882 -0.53412,-0.793448 -1.30466,-0.976714 -0.8331,-0.229088 -1.1175,0.333975 -1.61065,0.228885 -0.38834,-0.109154 -0.66177,-1.094673 -0.55977,-1.722586 z"
         id="path17"
         sodipodi:nodetypes="ccccccccccccccccccc" /></g></g></svg>
